<?xml version="1.0" encoding="UTF-8"?>
<svg version="1.1" xmlns="http://www.w3.org/2000/svg" width="1377" height="256">
<path d="M0 0 C454.41 0 908.82 0 1377 0 C1377 84.48 1377 168.96 1377 256 C922.59 256 468.18 256 0 256 C0 171.52 0 87.04 0 0 Z " fill="#FEFEFE" transform="translate(0,0)"/>
<path d="M0 0 C1.18460815 0.00115814 2.36921631 0.00231628 3.58972168 0.00350952 C22.13386375 0.03930721 40.31002615 0.71468526 58.6875 3.3125 C59.5650293 3.42996582 60.44255859 3.54743164 61.34667969 3.66845703 C66.50116683 4.37190015 71.59524543 5.24992522 76.6875 6.3125 C77.96657227 6.57933594 77.96657227 6.57933594 79.27148438 6.8515625 C82.04023086 7.44275392 84.80195217 8.05919011 87.5625 8.6875 C88.39475098 8.87231934 89.22700195 9.05713867 90.08447266 9.24755859 C101.2224324 11.90050216 111.05931886 16.74540196 120.75 22.75 C122.22774902 23.65818481 122.22774902 23.65818481 123.73535156 24.5847168 C136.54212147 32.56988416 148.7251716 41.50334184 160.16796875 51.34765625 C167.31342651 56.92000548 173.54591363 59.37202506 182.4375 61.1875 C184.75697012 61.6945161 187.0759655 62.20370793 189.39453125 62.71484375 C190.59158691 62.97507324 191.78864258 63.23530273 193.02197266 63.50341797 C259.70331972 78.22181308 259.70331972 78.22181308 278.30078125 106.99609375 C278.98720703 108.14271484 278.98720703 108.14271484 279.6875 109.3125 C280.07292969 109.94285156 280.45835937 110.57320313 280.85546875 111.22265625 C281.95804362 113.21236033 282.83687101 115.20235597 283.6875 117.3125 C284.24630859 118.64667969 284.24630859 118.64667969 284.81640625 120.0078125 C291.55248522 139.11292847 289.39624701 164.36155224 281.0703125 182.68359375 C277.60056594 189.28003284 274.6253595 193.28130288 267.6875 196.3125 C264.31274414 196.94091797 264.31274414 196.94091797 260.47265625 197.3046875 C259.74235703 197.37569168 259.0120578 197.44669586 258.2596283 197.51985168 C255.75752627 197.75692914 253.2541557 197.97325829 250.75 198.1875 C249.86256104 198.26698883 248.97512207 198.34647766 248.06079102 198.42837524 C227.8252081 200.23361613 207.54745955 201.52984332 187.27457809 202.8332901 C184.73091194 202.99720256 182.18736484 203.16287014 179.64382935 203.32879639 C156.66385158 204.82099645 133.71104783 205.84063706 110.6875 206.3125 C109.58726501 206.33655914 108.48703003 206.36061829 107.35345459 206.38540649 C101.99779243 206.49941025 96.64368689 206.58095006 91.28686523 206.60766602 C89.62695069 206.61959576 87.96708468 206.64062543 86.30737305 206.66918945 C83.80232979 206.71157557 81.29832379 206.7279366 78.79296875 206.73828125 C78.0587822 206.75578934 77.32459564 206.77329742 76.56816101 206.79133606 C69.81292365 206.76258616 66.53339109 204.11455475 61.85009766 199.54248047 C59.3273689 195.77462074 59.00047509 193.01629254 59.0859375 188.6328125 C59.07392807 187.53717484 59.07392807 187.53717484 59.06167603 186.41940308 C59.03873265 184.09153264 59.04797474 181.76541421 59.0625 179.4375 C59.09324572 161.38207428 58.37791119 141.80932783 46.48828125 127.0625 C39.58032501 120.34934513 30.96411591 117.04440635 21.4375 116.875 C13.10416858 117.02191476 7.64463099 118.75452309 1.44140625 124.33203125 C-7.63810951 133.84469822 -12.01565273 147.76037904 -12.421875 160.83203125 C-12.38578125 161.65058594 -12.3496875 162.46914062 -12.3125 163.3125 C-12.044375 162.30832031 -11.77625 161.30414063 -11.5 160.26953125 C-7.53445256 146.14801723 -1.76322541 133.91295816 11.0625 125.8125 C18.15439515 124.46166283 24.51186311 125.98094333 30.59375 129.75 C44.40909041 140.05995553 48.45988691 157.99061729 51.37109375 174.09375 C52.60076144 182.71095611 53.28306051 191.40392675 53.9909668 200.07739258 C54.06742432 200.98642334 54.14388184 201.8954541 54.22265625 202.83203125 C54.288479 203.64776611 54.35430176 204.46350098 54.42211914 205.30395508 C54.58530698 207.37994862 54.58530698 207.37994862 55.6875 209.3125 C65.5875 209.8075 65.5875 209.8075 75.6875 210.3125 C74.03765646 220.21156125 68.34681892 226.58627134 60.4453125 232.5546875 C48.88630085 239.92232948 35.87103454 242.22724841 22.42578125 239.69921875 C11.55869964 236.47460761 2.64359289 229.96828198 -3.3125 220.3125 C-3.910625 219.384375 -4.50875 218.45625 -5.125 217.5 C-6.85222388 212.86376749 -7.0589563 208.22600205 -7.3125 203.3125 C-15.20566734 201.16773591 -23.09828174 199.20516212 -31.1875 197.9453125 C-31.97663284 197.82199051 -32.76576569 197.69866852 -33.57881165 197.5716095 C-47.35435888 195.48851363 -61.21001078 193.93658463 -75.04328918 192.29246902 C-77.51929207 191.9977033 -79.9950859 191.70123736 -82.4708252 191.40426636 C-99.78419592 189.32849183 -117.10080599 187.29703649 -134.44140625 185.4609375 C-136.39876961 185.25356712 -136.39876961 185.25356712 -138.39567566 185.04200745 C-144.45937818 184.403285 -150.52410752 183.7766733 -156.59057617 183.16479492 C-157.68115829 183.05257599 -158.77174042 182.94035706 -159.89537048 182.82473755 C-161.8951979 182.61911098 -163.89554486 182.41844076 -165.89649963 182.22409058 C-178.7298556 180.8951444 -178.7298556 180.8951444 -182.3125 177.3125 C-182.3125 176.3225 -182.3125 175.3325 -182.3125 174.3125 C-178.02734658 174.11712529 -173.7421891 173.92184001 -169.45703125 173.7265625 C-168.79175793 173.69623114 -168.1264846 173.66589977 -167.44105148 173.63464928 C-159.30037383 173.26351009 -151.15964439 172.89356204 -143.01879883 172.52612305 C-139.97346704 172.38857566 -136.92813879 172.25095037 -133.8828125 172.11328125 C-132.74597928 172.06191167 -132.74597928 172.06191167 -131.58617973 172.00950432 C-122.03324866 171.57744453 -112.48113704 171.13182248 -102.9296875 170.66796875 C-82.70403987 169.69539747 -62.56594229 168.98251535 -42.3125 169.3125 C-43.09097539 167.85629309 -43.9124953 166.42307708 -44.75 165 C-45.20246094 164.19949219 -45.65492188 163.39898437 -46.12109375 162.57421875 C-51.89110978 156.61906852 -61.59976266 156.53523911 -69.41015625 155.6640625 C-70.57447678 155.52665146 -71.7387973 155.38924042 -72.93840027 155.24766541 C-76.74951037 154.80090272 -80.56208906 154.36860281 -84.375 153.9375 C-86.39183618 153.70564778 -88.40852737 153.47256144 -90.42521477 153.23941898 C-99.05198626 152.24274391 -107.68178672 151.27439541 -116.3125 150.3125 C-117.87795563 150.13687531 -117.87795563 150.13687531 -119.47503662 149.95770264 C-163.34639742 145.0377829 -207.34867012 141.29695283 -251.3125 137.3125 C-251.3125 136.3225 -251.3125 135.3325 -251.3125 134.3125 C-247.42053227 133.01517742 -243.59032057 132.90540181 -239.52587891 132.65966797 C-238.63122799 132.60236134 -237.73657707 132.5450547 -236.81481552 132.48601151 C-233.84812111 132.29684348 -230.8811053 132.11330318 -227.9140625 131.9296875 C-225.82603485 131.79750531 -223.73803263 131.66492085 -221.65005493 131.5319519 C-217.32675914 131.25712309 -213.00334019 130.98436584 -208.67980957 130.71325684 C-202.79753408 130.34390511 -196.91575207 129.96728383 -191.03417969 129.58691406 C-190.13258369 129.52860948 -189.2309877 129.47030489 -188.30207062 129.4102335 C-186.49082773 129.29306307 -184.67958657 129.17586582 -182.86834717 129.05864143 C-178.26223813 128.76087888 -173.65601683 128.46486369 -169.04980469 128.16870117 C-149.13707758 126.88783009 -129.22472127 125.6012089 -109.3125 124.3125 C-108.34877975 124.25013405 -107.38505951 124.1877681 -106.39213562 124.12351227 C-94.60765364 123.36075287 -82.82336241 122.59514149 -71.03936768 121.82489014 C-67.74544108 121.60965081 -64.45145448 121.39536807 -61.15740967 121.1819458 C-57.3268199 120.93371531 -53.49636403 120.68351339 -49.66600418 120.43176079 C-48.28026493 120.34100201 -46.89448097 120.25092283 -45.50864792 120.16160774 C-38.41814934 119.70417688 -31.36652241 119.16968679 -24.3125 118.3125 C-26.10409593 116.52090407 -28.81392505 116.75993261 -31.24536133 116.45214844 C-32.52654846 116.28798431 -33.8077356 116.12382019 -35.12774658 115.9546814 C-36.549993 115.77695806 -37.97225502 115.59935958 -39.39453125 115.421875 C-40.86313866 115.23555875 -42.33170486 115.04891737 -43.80023193 114.86196899 C-47.75184575 114.36033743 -51.70418095 113.8646427 -55.65678787 113.37090302 C-58.12967391 113.06191599 -60.60243356 112.75193468 -63.07516479 112.44171143 C-72.77242934 111.2258196 -82.47101513 110.02088989 -92.1706543 108.82409668 C-95.69157336 108.38959463 -99.21205261 107.9516316 -102.73242188 107.51269531 C-136.11676299 103.36746404 -169.64365641 100.59126313 -203.15080833 97.65236473 C-212.58275391 96.82486784 -222.01239417 95.9808115 -231.4365387 95.06808472 C-238.6832525 94.36718209 -245.9329587 93.70000995 -253.18320274 93.03679466 C-255.32534999 92.84081239 -257.4674664 92.64449643 -259.60957336 92.44807434 C-265.46195086 91.91151884 -271.31433068 91.37500301 -277.16699219 90.84155273 C-280.80288233 90.51009875 -284.43861011 90.17691191 -288.07423782 89.84259224 C-289.44160794 89.71717514 -290.80903601 89.59238801 -292.17652512 89.46827507 C-294.07925895 89.29551433 -295.98177284 89.12033645 -297.88427734 88.94506836 C-298.96011078 88.84673203 -300.03594421 88.74839569 -301.14437866 88.64707947 C-304.54860113 88.28756579 -307.92678623 87.81568984 -311.3125 87.3125 C-310.9825 85.9925 -310.6525 84.6725 -310.3125 83.3125 C-301.32069789 82.50671069 -292.35250971 82.10627821 -283.32919502 81.92767906 C-280.96132206 81.8808098 -278.59357608 81.82949489 -276.22581482 81.77729797 C-272.7483859 81.70107017 -269.2709248 81.62667449 -265.79342651 81.55368042 C-256.2695879 81.35299439 -246.7461244 81.13541744 -237.22265625 80.91796875 C-236.21089891 80.89493494 -235.19914158 80.87190113 -234.15672493 80.84816933 C-209.14478199 80.27709 -184.13500681 79.62611321 -159.12573242 78.94891357 C-154.20814272 78.81582525 -149.2905023 78.6849331 -144.37280273 78.55596924 C-138.54467294 78.40300556 -132.71667406 78.24577392 -126.88875008 78.08516502 C-124.72889131 78.0262906 -122.56899285 77.96885274 -120.40905571 77.91292763 C-117.44632338 77.83588922 -114.48378785 77.75348029 -111.52124023 77.66967773 C-110.22174438 77.63769885 -110.22174438 77.63769885 -108.89599609 77.60507393 C-104.92442353 77.48723802 -101.19032112 77.27502956 -97.3125 76.3125 C-111.11853015 72.53006723 -124.99232608 69.3161795 -139 66.375 C-140.0250766 66.15839722 -141.0501532 65.94179443 -142.10629272 65.71862793 C-162.91435137 61.3240563 -183.77413362 57.34029922 -204.71875 53.65234375 C-205.50650314 53.51359833 -206.29425629 53.37485291 -207.10588074 53.23190308 C-210.93339497 52.55859685 -214.7615105 51.88914996 -218.59106445 51.22753906 C-219.28699707 51.10649307 -219.98292969 50.98544708 -220.69995117 50.86073303 C-222.585909 50.53278089 -224.47226278 50.20710803 -226.35864258 49.8815918 C-229.3125 49.3125 -229.3125 49.3125 -232.3125 48.3125 C-230.85000167 43.68125527 -230.85000167 43.68125527 -228.65026855 42.17211914 C-225.58154407 41.04372074 -222.92844281 41.00232923 -219.65820312 40.93359375 C-218.99724136 40.91700714 -218.3362796 40.90042053 -217.6552887 40.8833313 C-216.22094665 40.84859222 -214.78649308 40.81824161 -213.35197449 40.79177856 C-211.06074348 40.74938936 -208.77003934 40.69534428 -206.47912598 40.63842773 C-201.59046307 40.51920011 -196.70153087 40.41533064 -191.8125 40.3125 C-152.16922607 40.9635309 -152.16922607 40.9635309 -115.875 27.625 C-97.29081867 16.23014138 -78.29247802 8.28947559 -56.875 4.0625 C-56.11461426 3.91127686 -55.35422852 3.76005371 -54.57080078 3.60424805 C-36.49640581 0.31984896 -18.31920739 -0.05552924 0 0 Z " fill="#017DF0" transform="translate(332.3125,8.6875)"/>
<path d="M0 0 C14.08993902 10.68594764 25.57047435 25.01493804 28.5546875 42.9375 C30.36474697 64.76504343 26.95955621 83.79118946 12.6796875 100.875 C1.54086428 112.57726564 -14.48470872 120.62915172 -30.6796875 121.40625 C-32.85131942 121.44037235 -35.02344963 121.45019625 -37.1953125 121.4375 C-38.90775146 121.42891968 -38.90775146 121.42891968 -40.65478516 121.42016602 C-58.35669234 121.04692546 -73.12760598 113.86799629 -85.90625 101.66015625 C-101.42349368 85.02089649 -103.36130111 66.10544584 -102.66748047 44.28320312 C-101.63793193 28.77888102 -92.37297442 15.45109895 -81.4453125 4.9375 C-58.92871448 -14.0080182 -24.45175123 -16.83325307 0 0 Z " fill="#364146" transform="translate(1339.4453125,84.0625)"/>
<path d="M0 0 C1.6875 1.37109375 1.6875 1.37109375 4 3.62109375 C4.33 1.31109375 4.66 -0.99890625 5 -3.37890625 C12.92 -3.37890625 20.84 -3.37890625 29 -3.37890625 C29 25.66109375 29 54.70109375 29 84.62109375 C21.08 84.62109375 13.16 84.62109375 5 84.62109375 C4.67 82.64109375 4.34 80.66109375 4 78.62109375 C3.43152344 79.01941406 2.86304688 79.41773438 2.27734375 79.828125 C1.50519531 80.35792969 0.73304688 80.88773437 -0.0625 81.43359375 C-0.81660156 81.95566406 -1.57070313 82.47773438 -2.34765625 83.015625 C-8.69337944 86.8567034 -13.89801281 88.17979118 -21.1875 88.12109375 C-22.02466553 88.11464844 -22.86183105 88.10820312 -23.72436523 88.1015625 C-35.5161428 87.7561158 -44.66182288 82.87256539 -53 74.62109375 C-64.14911035 61.54603343 -66.22880582 47.23637927 -65 30.62109375 C-63.11570744 19.78341108 -56.67049206 9.80662901 -48.05859375 2.96484375 C-33.97265621 -6.22977203 -14.82021588 -10.21784415 0 0 Z " fill="#354045" transform="translate(848,117.37890625)"/>
<path d="M0 0 C26.4 0 52.8 0 80 0 C80 7.92 80 15.84 80 24 C62.18 24 44.36 24 26 24 C26 33.57 26 43.14 26 53 C42.17 53 58.34 53 75 53 C75 60.26 75 67.52 75 75 C58.83 75 42.66 75 26 75 C26 84.24 26 93.48 26 103 C44.48 103 62.96 103 82 103 C82 110.59 82 118.18 82 126 C54.94 126 27.88 126 0 126 C0 84.42 0 42.84 0 0 Z " fill="#343F44" transform="translate(1055,76)"/>
<path d="M0 0 C1.18335938 0.00950684 2.36671875 0.01901367 3.5859375 0.02880859 C12.80483176 0.24764349 20.3014883 1.53933742 28.6875 5.5625 C29.68523437 6.02011719 30.68296875 6.47773437 31.7109375 6.94921875 C38.24524331 10.21637165 43.46777562 14.48454591 48.6875 19.5625 C46.3190417 23.91949326 43.37177143 27.29439628 40 30.875 C39.48888672 31.42478516 38.97777344 31.97457031 38.45117188 32.54101562 C37.20052966 33.8851638 35.94455376 35.224346 34.6875 36.5625 C31.42891651 35.04283578 28.58820703 33.15429495 25.625 31.125 C15.56663559 24.74717316 5.50258636 23.41702866 -6.3125 24.5625 C-15.63816588 26.78708607 -23.44552389 32.41596433 -28.9296875 40.22265625 C-32.79797634 46.76815065 -35.89539547 53.9155836 -36.3125 61.5625 C-36.4053125 62.75552734 -36.4053125 62.75552734 -36.5 63.97265625 C-36.99538333 74.73176301 -33.80027371 84.96242787 -27.3125 93.5625 C-26.71179688 94.38363281 -26.11109375 95.20476562 -25.4921875 96.05078125 C-23.16795365 98.72906506 -20.9399553 100.37872184 -17.9375 102.25 C-17.02226563 102.83136719 -16.10703125 103.41273438 -15.1640625 104.01171875 C-6.56528009 108.68804288 3.4391755 108.9019703 12.89453125 106.875 C19.01649531 104.820075 23.76519424 101.67355715 28.6875 97.5625 C30.01605502 96.55616043 31.34818587 95.55447552 32.6875 94.5625 C33.07679688 94.975 33.46609375 95.3875 33.8671875 95.8125 C38.77738909 100.88109519 44.11334141 105.24448982 49.6875 109.5625 C46.2412359 118.12007716 35.74448785 123.6728117 27.75 127.34375 C13.05809407 133.19052889 -5.57437298 134.33932855 -20.5625 128.7578125 C-21.47 128.36335938 -22.3775 127.96890625 -23.3125 127.5625 C-24.6428125 127.00175781 -24.6428125 127.00175781 -26 126.4296875 C-32.10246847 123.62031939 -37.25146694 119.95526285 -42.3125 115.5625 C-43.0653125 114.91667969 -43.818125 114.27085937 -44.59375 113.60546875 C-56.96154633 102.19067043 -63.82276115 85.92646306 -64.55078125 69.21484375 C-64.97766368 50.916847 -60.48399918 35.58564713 -48.3125 21.5625 C-47.66667969 20.8096875 -47.02085937 20.056875 -46.35546875 19.28125 C-34.20036701 6.11134385 -17.71047547 -0.23023618 0 0 Z " fill="#354046" transform="translate(720.3125,73.4375)"/>
<path d="M0 0 C-2.4216905 2.91558791 -4.29765608 3.53305548 -8 4.125 C-8.86625 4.27195313 -9.7325 4.41890625 -10.625 4.5703125 C-20.74852276 5.85918693 -30.86859628 6.29348112 -41.0625 6.5625 C-41.82502075 6.58334656 -42.5875415 6.60419312 -43.37316895 6.62567139 C-56.66475137 6.98063845 -69.95399807 7.10699966 -83.25 7.125 C-84.12343048 7.1275882 -84.99686096 7.13017639 -85.89675903 7.13284302 C-128.51123136 7.2328475 -128.51123136 7.2328475 -139.8828125 -3.83203125 C-143.38346158 -7.65156537 -146.53514227 -11.69764054 -149.66943359 -15.81982422 C-156.30360012 -24.50875645 -163.82418972 -32.07772544 -171.70581055 -39.63989258 C-173 -41 -173 -41 -173 -42 C-110.01919307 -47.03846455 -50.03177527 -41.27045057 0 0 Z " fill="#FCFDFE" transform="translate(483,72)"/>
<path d="M0 0 C11.45167718 6.7449328 19.33022002 15.47518225 22.70703125 28.48046875 C24.90052218 42.90064062 23.42160524 56.13706732 14.8203125 68.1875 C8.57193517 75.82119886 0.93400258 80.70573314 -8.87109375 82.25390625 C-21.59682267 83.29334735 -31.33280894 81.40534154 -41.30859375 73.00390625 C-45.59754915 68.84554404 -48.55250694 64.7487685 -50.87109375 59.25390625 C-51.18820312 58.55394531 -51.5053125 57.85398438 -51.83203125 57.1328125 C-55.63165672 47.07600565 -55.68664197 32.51925452 -51.90234375 22.4453125 C-46.69480151 11.37928525 -39.63792952 2.89134163 -28.09375 -1.8984375 C-19.0232207 -4.28426157 -8.51610568 -4.13557078 0 0 Z " fill="#FDFEFE" transform="translate(1317.87109375,99.74609375)"/>
<path d="M0 0 C8.91 0 17.82 0 27 0 C27 33.99 27 67.98 27 103 C43.17 103 59.34 103 76 103 C76 110.59 76 118.18 76 126 C50.92 126 25.84 126 0 126 C0 84.42 0 42.84 0 0 Z " fill="#353F45" transform="translate(1155,76)"/>
<path d="M0 0 C8.91 0 17.82 0 27 0 C27 33.99 27 67.98 27 103 C42.84 103 58.68 103 75 103 C75 110.59 75 118.18 75 126 C50.25 126 25.5 126 0 126 C0 84.42 0 42.84 0 0 Z " fill="#364146" transform="translate(964,76)"/>
<path d="M0 0 C3.031875 0.061875 3.031875 0.061875 6.125 0.125 C6.125 7.385 6.125 14.645 6.125 22.125 C-1.0625 22.9375 -1.0625 22.9375 -3.29760742 23.17114258 C-7.53535371 23.69478037 -10.34904348 24.77221366 -13.875 27.125 C-14.535 27.125 -15.195 27.125 -15.875 27.125 C-20.26767106 35.23454657 -21.3324949 41.94639901 -21.38671875 51.0625 C-21.40466995 52.18317871 -21.42262115 53.30385742 -21.44111633 54.45849609 C-21.49500344 58.01395991 -21.5290464 61.56929111 -21.5625 65.125 C-21.59569205 67.54559128 -21.63018345 69.96616511 -21.66601562 72.38671875 C-21.75314702 78.299496 -21.81340294 84.21168185 -21.875 90.125 C-30.125 90.125 -38.375 90.125 -46.875 90.125 C-46.875 61.085 -46.875 32.045 -46.875 2.125 C-38.625 2.125 -30.375 2.125 -21.875 2.125 C-21.545 3.775 -21.215 5.425 -20.875 7.125 C-20.36710938 6.78726563 -19.85921875 6.44953125 -19.3359375 6.1015625 C-18.64757812 5.65554687 -17.95921875 5.20953125 -17.25 4.75 C-16.57710937 4.30914062 -15.90421875 3.86828125 -15.2109375 3.4140625 C-10.13335406 0.61205157 -5.76444037 -0.11764164 0 0 Z " fill="#354045" transform="translate(943.875,111.875)"/>
<path d="M0 0 C7.90387878 6.55107544 21.47886753 20.33097248 22.96484375 30.98046875 C22.77921875 32.12515625 22.77921875 32.12515625 22.58984375 33.29296875 C18.90133315 35.75197582 17.02782342 35.5639202 12.625 35.59375 C11.92826172 35.59930405 11.23152344 35.60485809 10.51367188 35.61058044 C8.226355 35.62246856 5.93966181 35.61602948 3.65234375 35.60546875 C2.86963104 35.60397827 2.08691833 35.60248779 1.28048706 35.60095215 C-26.24658336 35.50691089 -53.2925747 32.19337363 -79.41015625 23.29296875 C-78.34861328 22.44605469 -78.34861328 22.44605469 -77.265625 21.58203125 C-75.40381006 20.08952297 -73.55168413 18.58482242 -71.7109375 17.06640625 C-53.0321397 2.07453456 -23.00893823 -16.29644409 0 0 Z " fill="#FCFDFE" transform="translate(297.41015625,41.70703125)"/>
<path d="M0 0 C26.67928344 -1.60611071 59.1496151 3.32423056 81.1875 19.3125 C83.45082535 22.66846517 83.72046421 24.98301565 83.48828125 28.9765625 C83 31 83 31 80.8125 33 C63.51739827 39.1493695 39.02371844 35.84627448 22.609375 28.37109375 C12.46601518 23.04127444 4.33342814 14.65301083 0 4 C0 2.68 0 1.36 0 0 Z " fill="#FCFDFE" transform="translate(406,117)"/>
<path d="M0 0 C5.52002164 3.82155345 8.72156964 7.95163719 10.75 14.375 C10.8325 15.24125 10.915 16.1075 11 17 C11.06316406 17.63421875 11.12632812 18.2684375 11.19140625 18.921875 C11.59320306 26.23198471 9.78852745 33.20373738 5.421875 39.1484375 C0.50140766 44.40136885 -4.69323292 47.06800242 -11.9375 47.5 C-18.28868001 47.27833514 -22.25962487 44.61858068 -26.7578125 40.3203125 C-32.56539337 34.0077246 -33.47729845 27.73989093 -33.3046875 19.3203125 C-32.64735712 12.15709679 -30.4123473 6.92270266 -25.125 2 C-17.22593848 -4.20536256 -8.82360879 -4.47470181 0 0 Z " fill="#FDFDFD" transform="translate(841,136)"/>
<path d="M0 0 C-1.8290591 6.70655002 -6.59818743 10.6228515 -12.43359375 13.96875 C-23.9822998 19.95461779 -35.67527286 22.27507019 -48.5703125 19.12890625 C-55.08477609 16.58809884 -60.12068142 12.97977514 -65 8 C-64.67 7.01 -64.34 6.02 -64 5 C-52.28417251 3.65426306 -40.5470619 2.57587548 -28.79699707 1.58047485 C-27.1926398 1.44436607 -25.5883893 1.30699241 -23.98425293 1.16830444 C-15.98270401 0.47874125 -8.04001919 -0.20238035 0 0 Z " fill="#037AF0" transform="translate(588,213)"/>
<path d="M0 0 C2.90709848 0.29177083 5.20834487 1.04465785 7.5234375 2.84765625 C9.6079808 5.53134972 9.4245055 7.81038159 9.30078125 11.11328125 C8.43657651 15.5271534 6.07144428 18.50298273 2.828125 21.52734375 C-2.92241022 25.33900119 -8.31098931 26.6480334 -15.16210938 26.67260742 C-16.37016235 26.67898727 -17.57821533 26.68536713 -18.82287598 26.69194031 C-20.12398315 26.69305313 -21.42509033 26.69416595 -22.765625 26.6953125 C-24.11796097 26.69852726 -25.47029659 26.7018915 -26.82263184 26.70539856 C-29.65373542 26.7113787 -32.48480852 26.71323953 -35.31591797 26.71264648 C-38.94081289 26.71254475 -42.56551244 26.72621343 -46.19036102 26.74341869 C-48.98192236 26.7545429 -51.77343646 26.75656559 -54.5650177 26.75603676 C-56.55031789 26.75778797 -58.53560334 26.7686229 -60.52087402 26.77958679 C-61.728927 26.77651016 -62.93697998 26.77343353 -64.18164062 26.77026367 C-65.7757074 26.7724012 -65.7757074 26.7724012 -67.40197754 26.77458191 C-70.17040586 26.52747488 -71.815681 25.95475905 -74.171875 24.52734375 C-64.46377619 21.81013131 -55.05050502 20.17241515 -44.984375 19.46484375 C-26.4515363 18.5196792 -26.4515363 18.5196792 -10.171875 10.52734375 C-8.77834782 8.76611724 -7.42532032 6.97226812 -6.109375 5.15234375 C-2.7836213 0.67587927 -2.7836213 0.67587927 0 0 Z " fill="#F9FCFE" transform="translate(595.171875,121.47265625)"/>
<path d="M0 0 C0.33 0.66 0.66 1.32 1 2 C0.030625 2.12375 -0.93875 2.2475 -1.9375 2.375 C-3.4534375 2.684375 -3.4534375 2.684375 -5 3 C-5.33 3.66 -5.66 4.32 -6 5 C-11.98833405 6.53718396 -17.96723499 5.86182357 -24 5 C-24 4.01 -24 3.02 -24 2 C-16.42717042 -0.52427653 -7.90909406 -0.15440748 0 0 Z " fill="#1078F0" transform="translate(105,141)"/>
<path d="M0 0 C4.29 0 8.58 0 13 0 C13.33 0.99 13.66 1.98 14 3 C15.48113281 3.07347656 15.48113281 3.07347656 16.9921875 3.1484375 C18.91417969 3.26058594 18.91417969 3.26058594 20.875 3.375 C22.15117188 3.44460937 23.42734375 3.51421875 24.7421875 3.5859375 C28 4 28 4 30 6 C21.75 5.34 13.5 4.68 5 4 C5 3.67 5 3.34 5 3 C2.03 2.505 2.03 2.505 -1 2 C-0.67 1.34 -0.34 0.68 0 0 Z " fill="#117CF1" transform="translate(23,93)"/>
<path d="M0 0 C0.99 0.33 1.98 0.66 3 1 C2.21085905 7.78661213 0.58725189 14.36149367 -1 21 C-1.33 21 -1.66 21 -2 21 C-2.2494783 13.70968976 -1.72330907 7.09326321 0 0 Z " fill="#E8F4FD" transform="translate(321,156)"/>
<path d="M0 0 C2.97 0 5.94 0 9 0 C9.33 0.99 9.66 1.98 10 3 C6.7 3 3.4 3 0 3 C0 2.01 0 1.02 0 0 Z " fill="#424C52" transform="translate(718,94)"/>
<path d="M0 0 C0 0.66 0 1.32 0 2 C-3.3 2.33 -6.6 2.66 -10 3 C-8.0130571 -0.97388579 -3.91761109 -0.08705802 0 0 Z " fill="#263036" transform="translate(709,75)"/>
<path d="M0 0 C1.21816406 0.03480469 1.21816406 0.03480469 2.4609375 0.0703125 C3.68683594 0.09738281 3.68683594 0.09738281 4.9375 0.125 C5.87722656 0.15980469 5.87722656 0.15980469 6.8359375 0.1953125 C6.8359375 1.1853125 6.8359375 2.1753125 6.8359375 3.1953125 C3.2059375 2.8653125 -0.4240625 2.5353125 -4.1640625 2.1953125 C-2.1640625 0.1953125 -2.1640625 0.1953125 0 0 Z " fill="#1A7AF1" transform="translate(303.1640625,122.8046875)"/>
<path d="M0 0 C0.99 0 1.98 0 3 0 C1.75023244 3.65316671 1.32901247 4.78065836 -2 7 C-1.34 4.69 -0.68 2.38 0 0 Z " fill="#056DEE" transform="translate(585,213)"/>
</svg>
