<?xml version="1.0" encoding="UTF-8"?>
<svg version="1.1" xmlns="http://www.w3.org/2000/svg" width="1536" height="1024">
<path d="M0 0 C506.88 0 1013.76 0 1536 0 C1536 337.92 1536 675.84 1536 1024 C1029.12 1024 522.24 1024 0 1024 C0 686.08 0 348.16 0 0 Z " fill="#FEFEFE" transform="translate(0,0)"/>
<path d="M0 0 C3.20578728 0.00008069 6.41142989 -0.006782 9.6171875 -0.02050781 C37.22721334 -0.13663927 64.70808012 0.54794916 92.09350586 4.43530273 C93.24337479 4.59437103 93.24337479 4.59437103 94.41647339 4.75665283 C107.91617846 6.64002615 121.09976041 9.20662439 134.15600586 13.18530273 C135.04545898 13.45600586 135.93491211 13.72670898 136.85131836 14.00561523 C153.6113434 19.23396124 167.76404044 26.94213001 182.17407227 36.8347168 C184.20226725 38.2168275 186.24445133 39.57533406 188.29272461 40.92749023 C199.70368962 48.46064147 210.93228254 56.24389405 222.13891602 64.0769043 C227.26604075 67.65983432 232.39819508 71.23552543 237.53100586 74.81030273 C238.46323975 75.46095703 239.39547363 76.11161133 240.35595703 76.78198242 C242.12751915 78.01612956 243.90288697 79.24483522 245.68237305 80.4675293 C247.2472767 81.55425079 248.7972282 82.66311587 250.32495117 83.80151367 C261.95756953 92.20850501 276.71937503 94.75002817 290.41461182 98.1192627 C395.78880553 124.12005805 395.78880553 124.12005805 421.21850586 162.56030273 C428.98073724 176.00373831 432.55143519 192.17691136 432.46850586 207.56030273 C432.46431641 208.6552002 432.46012695 209.75009766 432.45581055 210.87817383 C432.32613623 220.88378896 431.68413232 230.83704486 430.90600586 240.81030273 C430.85151276 241.55785828 430.79701965 242.30541382 430.74087524 243.07562256 C429.42155781 260.75773256 426.95518357 278.72227244 413.15600586 291.18530273 C404.84136965 296.86152454 396.46585217 299.11705471 386.54272461 300.07983398 C385.80627213 300.15211716 385.06981964 300.22440033 384.31105042 300.2988739 C381.82254414 300.53968061 379.33320082 300.76962843 376.84350586 300.99780273 C375.95377075 301.08078613 375.06403564 301.16376953 374.14733887 301.24926758 C321.24741504 306.16118943 268.20892616 309.46971314 215.15600586 312.18530273 C213.36356445 312.2777829 213.36356445 312.2777829 211.53491211 312.37213135 C186.40804808 313.65965218 161.31692008 314.36874461 136.15600586 314.43530273 C135.01332245 314.4406604 133.87063904 314.44601807 132.69332886 314.45153809 C129.45158982 314.4631915 126.21024671 314.45984801 122.96850586 314.45092773 C122.01976089 314.45487549 121.07101593 314.45882324 120.09352112 314.46289062 C112.67117194 314.41178926 105.6805016 313.53101929 98.71850586 310.87280273 C92.17517424 304.01028421 92.54083555 290.94487288 91.71850586 281.87280273 C88.25414019 247.33029545 83.32377116 207.72696477 56.15600586 183.18530273 C52.64625189 180.47364442 49.08867676 178.22832834 45.15600586 176.18530273 C44.5050293 175.82823242 43.85405273 175.47116211 43.18334961 175.10327148 C35.58572183 171.57061653 25.67944026 171.92659179 17.90600586 174.68530273 C2.78829213 181.78491871 -5.04225987 195.34809432 -10.96899414 210.31030273 C-13.9010639 218.65359065 -16.18645363 228.31560189 -15.84399414 237.18530273 C-15.54106445 235.94135742 -15.23813477 234.69741211 -14.92602539 233.41577148 C-11.18475643 218.40542008 -6.74200303 203.86300302 5.15600586 193.18530273 C5.91913086 192.48405273 6.68225586 191.78280273 7.46850586 191.06030273 C12.97123983 187.22118601 18.40743446 185.4749268 25.15600586 186.18530273 C38.06630768 188.65131544 46.68276819 198.98209291 53.88500977 209.25708008 C67.73732045 230.27236048 75.52067436 258.16023641 75.14819336 283.14233398 C75.13069518 285.24454285 75.11378519 287.34675668 75.09741211 289.44897461 C75.06632764 292.73874737 75.03058017 296.02827057 74.98461914 299.31787109 C74.94242897 302.50939123 74.91889744 305.70061217 74.89819336 308.89233398 C74.87957245 309.87982132 74.86095154 310.86730865 74.84176636 311.88471985 C74.83831207 312.79964706 74.83485779 313.71457428 74.83129883 314.65722656 C74.82162079 315.46138504 74.81194275 316.26554352 74.80197144 317.09407043 C75.25077114 319.74506811 76.02567658 320.58420982 78.15600586 322.18530273 C80.75606561 322.87433329 83.19976128 323.39370732 85.84350586 323.81030273 C86.58721436 323.9351001 87.33092285 324.05989746 88.09716797 324.18847656 C95.7504204 325.40393145 103.41992206 325.88335599 111.15600586 326.18530273 C109.63308752 330.66945119 107.17487318 334.27014444 104.40600586 338.06030273 C103.95281982 338.68308105 103.49963379 339.30585937 103.03271484 339.94750977 C101.74874023 341.69974127 100.45424086 343.44362446 99.15600586 345.18530273 C98.36129883 346.26811523 98.36129883 346.26811523 97.55053711 347.37280273 C88.09398185 359.35295486 73.89186664 365.20115984 59.15600586 367.18530273 C41.36727709 368.57514305 25.67898285 367.20368432 11.30053711 355.70092773 C-2.93265612 342.5425523 -10.16289757 323.22746657 -15.84399414 305.18530273 C-15.84399414 304.52530273 -15.84399414 303.86530273 -15.84399414 303.18530273 C-16.59036133 303.15952148 -17.33672852 303.13374023 -18.10571289 303.10717773 C-28.06778759 302.60737011 -37.85347834 301.27269052 -47.72390747 299.86347961 C-56.99535085 298.55112833 -66.27677796 297.37565591 -75.57836914 296.29467773 C-76.29893053 296.21042982 -77.01949192 296.12618191 -77.7618885 296.03938103 C-94.30982692 294.10532403 -110.87003027 292.28545098 -127.43465424 290.50066757 C-129.83002381 290.24257381 -132.22534579 289.98404121 -134.6206665 289.72549438 C-169.37218068 285.97746518 -204.13687471 282.358418 -238.96899414 279.43530273 C-239.67376892 279.37595551 -240.3785437 279.31660828 -241.10467529 279.25546265 C-249.39484264 278.56311196 -257.68429374 277.98032015 -265.9927063 277.56500244 C-278.11183207 276.9174648 -278.11183207 276.9174648 -280.84399414 274.18530273 C-281.09399414 271.68530273 -281.09399414 271.68530273 -280.84399414 269.18530273 C-277.9383486 266.2796572 -274.80992811 266.70797446 -270.8972168 266.51855469 C-270.06748572 266.47083797 -269.23775465 266.42312126 -268.38288021 266.37395859 C-266.56004185 266.27037388 -264.73695024 266.17117851 -262.91366768 266.07573128 C-259.9559149 265.92085367 -256.99896678 265.75483014 -254.04197693 265.58604431 C-249.76243961 265.34287966 -245.48267519 265.10448513 -241.20266724 264.86975098 C-229.82237798 264.24386617 -218.4443459 263.57915475 -207.06665039 262.90795898 C-205.90159155 262.83937557 -204.73653271 262.77079216 -203.53616905 262.70013046 C-179.29552823 261.26673464 -155.08136535 259.53352117 -130.87078094 257.66415024 C-127.92948322 257.43707753 -124.98809551 257.21120063 -122.04669189 256.98550415 C-93.92453284 254.82449045 -93.92453284 254.82449045 -65.84399414 252.18530273 C-66.81436836 249.75873255 -67.46717232 248.43011214 -69.68725586 246.98779297 C-75.06700939 244.72197714 -80.21607418 243.21008282 -85.96899414 242.24780273 C-86.90396729 242.08578369 -87.83894043 241.92376465 -88.80224609 241.75683594 C-104.06526523 239.21239846 -119.44939536 237.42418582 -134.80639648 235.5557251 C-137.96767236 235.17022069 -141.12851379 234.7812896 -144.28930664 234.3918457 C-180.67320512 229.91749639 -217.09727371 225.99531829 -253.56921387 222.32350159 C-260.91343044 221.58408049 -268.25666662 220.8366207 -275.59790039 220.06811523 C-278.61740405 219.75274624 -281.63692842 219.43757702 -284.65649414 219.12280273 C-285.36197388 219.04923553 -286.06745361 218.97566833 -286.79431152 218.89987183 C-297.11856757 217.82804044 -307.45017145 216.84176122 -317.78540611 215.88247108 C-319.94845291 215.68149033 -322.1114226 215.47969954 -324.27436829 215.27763367 C-325.72555491 215.14211485 -327.17674204 215.00660156 -328.62792969 214.87109375 C-329.34930902 214.80370971 -330.07068834 214.73632566 -330.81392765 214.66689968 C-335.12109129 214.26527945 -339.42879322 213.87017756 -343.73699665 213.47987843 C-345.78044948 213.29375786 -347.82359673 213.10461578 -349.86665344 212.91419983 C-352.39098148 212.67908914 -354.91577863 212.4489436 -357.44108582 212.22459412 C-372.19692326 210.83237362 -372.19692326 210.83237362 -374.84399414 208.18530273 C-375.03149414 205.74780273 -375.03149414 205.74780273 -374.84399414 203.18530273 C-372.36473949 200.70604808 -371.49217707 200.88122206 -368.06138611 200.71269226 C-367.04838755 200.65828224 -366.03538898 200.60387222 -364.9916935 200.54781342 C-363.87295027 200.49739143 -362.75420704 200.44696945 -361.6015625 200.39501953 C-360.42269659 200.33437065 -359.24383068 200.27372177 -358.02924156 200.21123505 C-354.76729978 200.04515019 -351.50507389 199.88747143 -348.24255776 199.7331636 C-344.77611018 199.5670712 -341.31023017 199.38989579 -337.84428406 199.21369934 C-331.91542808 198.91356439 -325.98629822 198.61949946 -320.0569458 198.3293457 C-310.76252458 197.87408421 -301.46894384 197.40296612 -292.17553711 196.92749023 C-291.40812541 196.88823716 -290.64071371 196.84898409 -289.85004711 196.80854154 C-285.98756633 196.61090998 -282.12509913 196.41301524 -278.26264191 196.21492386 C-275.17842799 196.0567783 -272.09419419 195.89902943 -269.0099411 195.74164963 C-244.49034349 194.49048034 -219.97389475 193.20138045 -195.46899414 191.68530273 C-194.69811966 191.63765903 -193.92724518 191.59001534 -193.13301086 191.54092789 C-165.5782553 189.83066348 -138.05275631 187.73863566 -110.53149414 185.56030273 C-109.5965638 185.48651398 -108.66163345 185.41272522 -107.69837189 185.33670044 C-89.67688777 183.91283289 -71.65875046 182.4576647 -53.67602539 180.59936523 C-51.9819178 180.42937515 -51.9819178 180.42937515 -50.25358582 180.25595093 C-45.20495305 179.71102445 -40.59535255 179.1014462 -35.84399414 177.18530273 C-50.18454967 171.34033697 -66.08524628 169.28541843 -81.40649414 167.71264648 C-83.18893524 167.52622841 -83.18893524 167.52622841 -85.00738525 167.33604431 C-100.34959305 165.77391318 -115.72430885 164.59977459 -131.10096741 163.43675232 C-133.63141677 163.24496643 -136.16172988 163.05146295 -138.6920166 162.85754395 C-165.03510115 160.84124354 -191.38733242 159.04411295 -217.76098633 157.47851562 C-230.99901649 156.69185888 -244.22153645 155.81144345 -257.44165039 154.76586914 C-264.72488209 154.19020594 -272.01029537 153.64576231 -279.29597473 153.10220337 C-326.0538526 149.61374864 -372.77410003 145.86414887 -419.44641113 141.36369324 C-425.86478339 140.74553538 -432.28342284 140.14064444 -438.70763302 139.58588028 C-441.70823508 139.32649736 -444.70827844 139.06093751 -447.70832253 138.7951889 C-449.13331304 138.6708785 -450.55858735 138.54977536 -451.98413658 138.43204498 C-453.94176158 138.27022411 -455.89841011 138.09671668 -457.85498047 137.92260742 C-458.96674149 137.82808289 -460.0785025 137.73355835 -461.22395325 137.63616943 C-463.84399414 137.18530273 -463.84399414 137.18530273 -465.84399414 135.18530273 C-466.03149414 132.12280273 -466.03149414 132.12280273 -465.84399414 129.18530273 C-461.41471098 124.75601957 -445.11801134 126.9335946 -439.05078125 126.828125 C-437.70945586 126.80200403 -436.36813723 126.77553453 -435.02682495 126.74874878 C-432.15102206 126.69201873 -429.27518811 126.63763883 -426.39930534 126.58511543 C-421.77177954 126.50049257 -417.14438093 126.40990376 -412.51698303 126.31858826 C-402.60523847 126.12381488 -392.69337357 125.93556612 -382.78149414 125.74780273 C-369.89468755 125.50354368 -357.0079393 125.25658768 -344.12133789 125.00170898 C-343.32486595 124.98598359 -342.52839401 124.97025819 -341.70778656 124.95405626 C-317.59169355 124.47650246 -293.48106351 123.88228391 -269.37133789 123.15014648 C-268.69110715 123.12950677 -268.0108764 123.10886706 -267.31003261 123.0876019 C-214.6865555 121.49559899 -214.6865555 121.49559899 -162.09399414 119.12280273 C-161.31324524 119.0826001 -160.53249634 119.04239746 -159.72808838 119.00097656 C-157.5841191 118.88906212 -155.44060098 118.77099903 -153.29711914 118.65014648 C-151.52062988 118.55141235 -151.52062988 118.55141235 -149.70825195 118.45068359 C-146.77401426 118.28828501 -146.77401426 118.28828501 -143.84399414 117.18530273 C-157.01684799 105.68032961 -172.40622469 101.69799421 -189.30102539 99.02124023 C-190.49304565 98.82795135 -191.68506592 98.63466248 -192.91320801 98.43551636 C-196.15143039 97.91263332 -199.39050456 97.39555864 -202.63022232 96.8820343 C-204.67379373 96.55755591 -206.71699328 96.23082493 -208.76010132 95.90344238 C-235.88671308 91.55951248 -263.06176142 87.57961273 -290.25839233 83.69996643 C-297.94811507 82.60263268 -305.63550603 81.49067241 -313.32055664 80.36108398 C-314.27292709 80.22110992 -315.22529755 80.08113586 -316.20652771 79.93692017 C-319.71883063 79.420234 -323.23103436 78.90288233 -326.74307251 78.38439941 C-329.02528618 78.04764794 -331.3076559 77.71197719 -333.59008789 77.37670898 C-334.29102066 77.27321136 -334.99195343 77.16971375 -335.71412659 77.06307983 C-339.15498517 76.55949255 -342.59669458 76.08328563 -346.04760742 75.65356445 C-346.72469254 75.56823959 -347.40177765 75.48291473 -348.09938049 75.39500427 C-349.93031591 75.16711546 -351.76224478 74.94724783 -353.59423828 74.72802734 C-361.64594219 73.38335468 -361.64594219 73.38335468 -363.84399414 71.18530273 C-363.65649414 67.74780273 -363.65649414 67.74780273 -362.84399414 64.18530273 C-359.47850259 61.6826772 -356.00464937 61.91608137 -351.93139648 61.88232422 C-351.23964608 61.87386223 -350.54789568 61.86540024 -349.83518314 61.85668182 C-347.53342404 61.83075853 -345.2318009 61.81864209 -342.92993164 61.80639648 C-341.29955654 61.79050369 -339.66919023 61.77368486 -338.03883362 61.7559967 C-334.56870964 61.72001686 -331.09860387 61.68984344 -327.62838745 61.66430664 C-322.21519469 61.62420557 -316.80219796 61.57046837 -311.38916016 61.51342773 C-309.5818024 61.49447349 -307.77444461 61.47552207 -305.96708679 61.45657349 C-305.07451361 61.44718876 -304.18194042 61.43780403 -303.26231956 61.42813492 C-300.55723776 61.40012992 -297.8521464 61.373341 -295.14704895 61.34689331 C-281.39035104 61.2112367 -267.63591673 61.01995403 -253.88116455 60.74661255 C-251.84144264 60.70626795 -249.80168785 60.66754767 -247.76190186 60.63058472 C-225.30586603 60.22262235 -209.37035565 58.33437831 -189.84082031 46.54858398 C-159.06156676 27.99457764 -128.32847435 12.79749294 -92.84399414 6.18530273 C-91.91796387 6.01216553 -90.99193359 5.83902832 -90.0378418 5.66064453 C-82.47983354 4.32220753 -74.89589491 3.49877596 -67.25561523 2.80761719 C-65.24152029 2.62484688 -63.22832322 2.43392587 -61.21508789 2.24194336 C-57.09401767 1.85521987 -52.97021006 1.51210193 -48.84399414 1.18530273 C-47.59674561 1.08451416 -46.34949707 0.98372559 -45.06445312 0.87988281 C-30.07606173 -0.19654697 -15.01831027 -0.0019356 0 0 Z " fill="#0172D6" transform="translate(754.843994140625,341.814697265625)"/>
<path d="M0 0 C1.34147211 0.88655931 2.68326893 1.7726275 4.02539062 2.65820312 C6.67815386 4.4099732 9.32712849 6.16725571 11.97314453 7.92919922 C14.68516067 9.73448783 17.4056858 11.52596038 20.13232422 13.30908203 C20.8121788 13.75606949 21.49203339 14.20305695 22.19248962 14.66358948 C23.48039976 15.51033594 24.77059214 16.3536256 26.06349182 17.19273376 C29.3928223 19.38966009 32.16762523 21.70587279 34.9375 24.5625 C9.40734688 24.63261054 -16.12279178 24.68549825 -41.65302181 24.71793652 C-53.50740212 24.73339913 -65.36172257 24.75447716 -77.21606445 24.78881836 C-87.54944717 24.81873916 -97.88278654 24.83807941 -108.21621138 24.84476548 C-113.68663975 24.84867317 -119.1569441 24.85784435 -124.62733269 24.87969017 C-129.77941668 24.90009757 -134.93132592 24.90632516 -140.0834465 24.90182304 C-141.97120553 24.90264634 -143.85897057 24.90858655 -145.74669456 24.92011642 C-148.33178434 24.93512724 -150.91622142 24.93142256 -153.50132751 24.92326355 C-154.61177938 24.93637134 -154.61177938 24.93637134 -155.74466461 24.94974393 C-164.77144451 24.87317161 -171.42494081 22.00573168 -177.92382812 15.828125 C-181.40085337 12.14470099 -184.37018448 8.17828207 -187.3125 4.0625 C-188.60937844 2.29106181 -189.90890053 0.52155629 -191.2109375 -1.24609375 C-191.85385742 -2.11991699 -192.49677734 -2.99374023 -193.15917969 -3.89404297 C-197.46407251 -9.64678455 -202.06045113 -15.16676097 -206.63720703 -20.70361328 C-207.96784058 -22.32234563 -209.28231205 -23.95242781 -210.58984375 -25.58984375 C-215.11505958 -31.22895886 -219.84584589 -36.43328882 -225.0625 -41.4375 C-226.06386747 -42.43613066 -227.06407715 -43.43592534 -228.0625 -44.4375 C-219.68894867 -45.55334839 -211.30969299 -45.78337813 -202.875 -46 C-202.09638611 -46.02051422 -201.31777222 -46.04102844 -200.51556396 -46.06216431 C-126.93647854 -47.95776424 -62.52667467 -41.60080714 0 0 Z " fill="#FDFEFE" transform="translate(956.0625,417.4375)"/>
<path d="M0 0 C6.15087824 5.00616076 11.85204189 10.17341947 16.73828125 16.44921875 C17.46660156 17.37605469 18.19492187 18.30289062 18.9453125 19.2578125 C35.07745754 40.25902951 35.07745754 40.25902951 34.73828125 53.44921875 C-6.82507691 54.82785594 -88.43767386 54.46466275 -122.26171875 27.44921875 C-123.26171875 24.63671875 -123.26171875 24.63671875 -123.26171875 22.44921875 C-92.63983545 -4.29564499 -35.97725875 -28.52072385 0 0 Z " fill="#FDFEFE" transform="translate(705.26171875,391.55078125)"/>
<path d="M0 0 C10.07561827 -0.35660896 19.99443062 0.71672502 30 1.75 C31.3300708 1.88637878 31.3300708 1.88637878 32.68701172 2.0255127 C53.76337884 4.20004347 74.45635631 6.89763288 95.0625 11.9375 C95.74094971 12.10076782 96.41939941 12.26403564 97.1184082 12.43225098 C110.12459667 15.59611147 121.54371643 19.72788668 130 30.5625 C131.21031316 33.51263832 131.22037451 35.84129872 131 39 C125.33784825 41.80418642 120.33327519 42.69889741 114.0625 43.1875 C113.10956055 43.26645508 112.15662109 43.34541016 111.17480469 43.42675781 C81.1344743 45.6863854 48.06494252 45.35579279 23.3125 25.8125 C21.51379251 24.23965139 19.74478527 22.63246003 18 21 C17.45682129 20.49243164 16.91364258 19.98486328 16.35400391 19.46191406 C10.01627213 13.48506855 4.11470166 7.77221424 0 0 Z " fill="#FCFDFE" transform="translate(864,512)"/>
<path d="M0 0 C-8.46996618 13.7512392 -18.87835644 24.89846795 -34.875 29.33984375 C-40.40277327 30.4005709 -46.01305147 30.43459172 -51.625 30.5 C-52.67381348 30.51861084 -53.72262695 30.53722168 -54.80322266 30.55639648 C-70.11568472 30.43261815 -80.83267673 23.5220275 -91.34765625 12.953125 C-93 11 -93 11 -93 9 C-84.22936337 7.54202287 -75.50094488 6.49711299 -66.640625 5.78125 C-65.41196716 5.67784302 -64.18330933 5.57443604 -62.91741943 5.46789551 C-59.02861947 5.14102679 -55.13937077 4.81999926 -51.25 4.5 C-46.12990985 4.07642308 -41.01010408 3.6496507 -35.890625 3.21875 C-34.05884705 3.06490845 -34.05884705 3.06490845 -32.19006348 2.90795898 C-24.16153257 2.22058945 -16.16927573 1.38713203 -8.17871094 0.34960938 C-5.41523599 0.04566958 -2.77579961 -0.07093856 0 0 Z " fill="#0370D5" transform="translate(1135,652)"/>
<path d="M0 0 C1.875 0.5 1.875 0.5 4 2 C6.26249389 8.24879264 6.86197537 13.9051994 4.05859375 20.0703125 C-2.05735532 30.6874386 -12.00468004 35.47202588 -23.5 38.6875 C-37.78764727 41.84722166 -52.39512965 42.31230552 -66.97387695 42.20581055 C-69.59270807 42.18728632 -72.2111875 42.18530382 -74.83007812 42.18554688 C-82.9494196 42.16800926 -90.93408959 42.04049412 -99 41 C-96.08536316 38.08536316 -92.76801065 38.28069853 -88.8359375 37.8515625 C-87.1380167 37.64847204 -85.44010018 37.44534578 -83.7421875 37.2421875 C-81.08171281 36.93450035 -78.42088218 36.63020843 -75.75976562 36.328125 C-46.4624755 32.96722832 -26.95398295 24.87620481 -5.57421875 4.3984375 C-3 2 -3 2 0 0 Z " fill="#F9FCFD" transform="translate(1156,515)"/>
<path d="M0 0 C1.32 0.33 2.64 0.66 4 1 C1.69 9.58 -0.62 18.16 -3 27 C-3.33 27 -3.66 27 -4 27 C-4.14607685 21.34110966 -3.68698975 16.2262658 -2.5625 10.6875 C-2.42779297 9.98560547 -2.29308594 9.28371094 -2.15429688 8.56054688 C-1.58188136 5.63145481 -0.94479852 2.83439556 0 0 Z " fill="#EFF7FB" transform="translate(742,555)"/>
<path d="M0 0 C0.99 0.33 1.98 0.66 3 1 C2.01 5.62 1.02 10.24 0 15 C-0.33 15 -0.66 15 -1 15 C-1.09038099 9.84828377 -0.84681133 5.08086796 0 0 Z " fill="#D0E6F7" transform="translate(739,567)"/>
<path d="M0 0 C0 3.10551666 -0.5393715 4.35261084 -2 7 C-2.66 7 -3.32 7 -4 7 C-4.66 8.65 -5.32 10.3 -6 12 C-6.33 11.34 -6.66 10.68 -7 10 C-6.02223933 8.51990357 -5.0427506 7.04094856 -4.0625 5.5625 C-3.51722656 4.73878906 -2.97195313 3.91507813 -2.41015625 3.06640625 C-1 1 -1 1 0 0 Z " fill="#0A60D1" transform="translate(756,539)"/>
<path d="M0 0 C1.98 0 3.96 0 6 0 C4.68775452 3.93673644 3.08089673 6.22719294 0 9 C1.875 4.25 1.875 4.25 3 2 C2.01 1.67 1.02 1.34 0 1 C0 0.67 0 0.34 0 0 Z " fill="#0E67D3" transform="translate(860,668)"/>
</svg>
